<svg width="17" height="20" viewBox="0 0 17 20" fill="none" xmlns="http://www.w3.org/2000/svg">
<path fill-rule="evenodd" clip-rule="evenodd" d="M15.5924 8.52904C15.3338 8.78765 14.9145 8.78765 14.6559 8.52904L8.0606 1.93371L1.46527 8.52904C1.20667 8.78764 0.787382 8.78764 0.528775 8.52904C0.270168 8.27043 0.270168 7.85115 0.528775 7.59254L7.59235 0.528968C7.85096 0.270361 8.27024 0.270361 8.52885 0.528968L15.5924 7.59254C15.851 7.85115 15.851 8.27043 15.5924 8.52904Z" fill="#555555"/>
<path fill-rule="evenodd" clip-rule="evenodd" d="M8.06055 0.5C8.47476 0.5 8.81055 0.803807 8.81055 1.17857L8.81055 18.8214C8.81055 19.1962 8.47476 19.5 8.06055 19.5C7.64633 19.5 7.31055 19.1962 7.31055 18.8214L7.31055 1.17857C7.31055 0.803807 7.64633 0.5 8.06055 0.5Z" fill="#555555"/>
</svg>
