<svg xmlns="http://www.w3.org/2000/svg" width="36" height="36" viewBox="0 0 36 36">
    <g fill="none" fill-rule="evenodd">
        <path d="M0 0h36v36H0z"/>
        <path stroke="#333" stroke-linecap="round" stroke-width="2" d="M6.16 29.517c0-1.435.338-2.73.946-3.816a6.667 6.667 0 0 1 2.577-2.577c1.087-.608 2.38-.945 3.816-.945h9.002c1.435 0 2.729.337 3.816.945a6.667 6.667 0 0 1 2.577 2.577c.608 1.087.945 2.38.945 3.816"/>
        <path stroke="#333" stroke-width="2" d="M23.49 12.191a5.727 5.727 0 1 0-11.454 0 5.727 5.727 0 0 0 11.454 0z"/>
    </g>
</svg>
